<svg width="25" height="24" viewBox="0 0 25 24" fill="none" xmlns="http://www.w3.org/2000/svg">
<g id="mdi:ambulance">
<path id="Vector" d="M18.5 18.5C18.8978 18.5 19.2794 18.342 19.5607 18.0607C19.842 17.7794 20 17.3978 20 17C20 16.6022 19.842 16.2206 19.5607 15.9393C19.2794 15.658 18.8978 15.5 18.5 15.5C18.1022 15.5 17.7206 15.658 17.4393 15.9393C17.158 16.2206 17 16.6022 17 17C17 17.3978 17.158 17.7794 17.4393 18.0607C17.7206 18.342 18.1022 18.5 18.5 18.5ZM20 9.5H17.5V12H21.96L20 9.5ZM6.5 18.5C6.89782 18.5 7.27936 18.342 7.56066 18.0607C7.84196 17.7794 8 17.3978 8 17C8 16.6022 7.84196 16.2206 7.56066 15.9393C7.27936 15.658 6.89782 15.5 6.5 15.5C6.10218 15.5 5.72064 15.658 5.43934 15.9393C5.15804 16.2206 5 16.6022 5 17C5 17.3978 5.15804 17.7794 5.43934 18.0607C5.72064 18.342 6.10218 18.5 6.5 18.5ZM20.5 8L23.5 12V17H21.5C21.5 17.7956 21.1839 18.5587 20.6213 19.1213C20.0587 19.6839 19.2956 20 18.5 20C17.7044 20 16.9413 19.6839 16.3787 19.1213C15.8161 18.5587 15.5 17.7956 15.5 17H9.5C9.5 17.7956 9.18393 18.5587 8.62132 19.1213C8.05871 19.6839 7.29565 20 6.5 20C5.70435 20 4.94129 19.6839 4.37868 19.1213C3.81607 18.5587 3.5 17.7956 3.5 17H1.5V6C1.5 4.89 2.39 4 3.5 4H17.5V8H20.5ZM8.5 6V9H5.5V11H8.5V14H10.5V11H13.5V9H10.5V6H8.5Z" fill="#3757A1"/>
</g>
</svg>
