<svg width="48" height="49" viewBox="0 0 48 49" fill="none" xmlns="http://www.w3.org/2000/svg">
<g id="dashicons:awards">
<path id="Vector" d="M10.7054 13.3564L12.0014 18.8764L10.7054 24.3724L15.5294 27.3484L18.4814 32.1724L24.0014 30.8764L29.5214 32.1724L32.4734 27.3484L37.2974 24.3724L36.0014 18.8764L37.2974 13.3564L32.4974 10.3804L29.5214 5.5564L24.0014 6.8764L18.5054 5.5804L15.5054 10.3804L10.7054 13.3564ZM24.0254 28.5724C21.4793 28.5724 19.0375 27.561 17.2372 25.7606C15.4368 23.9603 14.4254 21.5185 14.4254 18.9724C14.4254 16.4263 15.4368 13.9845 17.2372 12.1842C19.0375 10.3838 21.4793 9.3724 24.0254 9.3724C29.3054 9.3724 33.6014 13.6684 33.6014 18.9484C33.6014 24.2764 29.3054 28.5724 24.0254 28.5724ZM23.9774 26.1724C19.9934 26.1724 16.8014 22.9564 16.8014 18.9724C16.8014 15.0124 19.9934 11.7724 23.9774 11.7724C27.9614 11.7724 31.2014 15.0124 31.2014 18.9724C31.2014 22.9564 27.9614 26.1724 23.9774 26.1724ZM33.1934 28.8124L30.1214 34.1884L25.1294 33.0604L31.2014 47.0524L34.5614 41.7724H40.5614L33.1934 28.8124ZM14.7134 28.9804L17.7134 34.3804L22.8254 33.1564L16.8014 47.0524L13.4414 41.7724H7.44141L14.7134 28.9804Z" fill="#FBBA00"/>
</g>
</svg>
