<svg width="65" height="65" viewBox="0 0 65 65" fill="none" xmlns="http://www.w3.org/2000/svg">
<g id="dashicons:awards">
<path id="Vector" d="M17.4586 24.6071L17.4985 24.4379L17.4587 24.2686L15.8522 17.4257L21.8007 13.7377L21.9468 13.6471L22.038 13.5012L25.7572 7.55048L32.5695 9.15689L32.7404 9.19717L32.9111 9.15635L39.7509 7.52074L43.4381 13.4976L43.5296 13.6459L43.6777 13.7377L49.6262 17.4257L48.0196 24.2686L47.9799 24.4379L48.0198 24.6071L49.6254 31.4163L43.6471 35.1044L43.4969 35.1971L43.4047 35.3477L39.7477 41.3237L32.9081 39.7179L32.7392 39.6783L32.5702 39.7179L25.7306 41.3237L22.0736 35.3477L21.9815 35.1971L21.8313 35.1044L15.8529 31.4163L17.4586 24.6071ZM40.7363 45.5744L41.2696 45.695L41.5409 45.2202L44.9935 39.1781L53.5487 54.2264H46.8192H46.4134L46.1956 54.5687L42.463 60.4342L35.5011 44.3915L40.7363 45.5744ZM11.9296 54.2264L20.3478 39.4181L23.7091 45.4684L23.9816 45.959L24.5273 45.8283L29.9046 44.5408L23.015 60.4336L19.2828 54.5687L19.0649 54.2264H18.6592H11.9296ZM23.1976 34.1391C25.7366 36.6782 29.1804 38.1046 32.7712 38.1046C40.2218 38.1046 46.2783 32.0433 46.2783 24.5335C46.2783 17.0853 40.2194 11.0264 32.7712 11.0264C29.1804 11.0264 25.7366 12.4528 23.1976 14.9919C20.6585 17.531 19.232 20.9747 19.232 24.5655C19.232 28.1563 20.6585 31.6 23.1976 34.1391ZM32.7072 33.4264C27.8066 33.4264 23.8783 29.4725 23.8783 24.5655C23.8783 19.6889 27.8082 15.7046 32.7072 15.7046C37.6126 15.7046 41.6 19.6953 41.6 24.5655C41.6 29.4661 37.6142 33.4264 32.7072 33.4264Z" stroke="#FAFAFA" stroke-width="1.47826"/>
</g>
</svg>
