<svg width="71" height="72" viewBox="0 0 71 72" fill="none" xmlns="http://www.w3.org/2000/svg">
<path id="path20" d="M58.4278 63.9367C58.4278 66.0853 56.6966 67.8331 54.5693 67.8331C52.442 67.8331 50.7114 66.0853 50.7114 63.9367C50.7114 61.7881 52.442 60.0396 54.5693 60.0396C56.6966 60.0396 58.4278 61.7881 58.4278 63.9367ZM35.0855 40.6778C28.1225 40.6778 22.0147 31.9655 22.0147 22.0329C22.0147 21.4397 22.0078 20.8106 22.0007 20.1575C21.9989 19.9903 21.9971 19.8212 21.9954 19.6508C23.5691 19.837 26.1936 20.0572 29.006 19.9102C31.6536 19.772 33.9229 19.3334 35.751 18.6065C37.2873 17.9957 38.5224 17.1798 39.4458 16.1689C40.7722 17.8297 43.3918 19.9329 48.3711 20.6137C48.3673 21.0946 48.3636 21.5684 48.3636 22.0329C48.3636 31.9655 42.1591 40.6778 35.0855 40.6778ZM42.6796 47.4687L35.1147 55.8238L27.6935 47.4756V40.6501C29.9091 42.3121 32.4328 43.2649 35.0855 43.2649C37.8152 43.2649 40.4092 42.2812 42.6796 40.5712V47.4687ZM23.131 9.38562C25.7362 4.1672 31.7392 3.38791 35.0855 3.38791C39.5171 3.38791 44.9368 5.17302 47.0547 9.16161C48.1774 11.2755 48.3717 14.563 48.3861 17.8095C45.8839 17.4152 43.8372 16.5576 42.414 15.2969C41.1777 14.2021 40.829 13.1679 40.8253 13.1571L40.8309 13.1761L38.2569 13.012C36.9149 16.0774 32.4316 16.9463 28.9071 17.135C26.0879 17.2864 23.4086 17.0302 21.9934 16.8523C22.0343 14.0039 22.2564 11.1379 23.131 9.38562ZM60.3395 48.3483L60.257 48.3155C51.6023 45.2349 46.9623 43.4953 45.2411 42.8409V38.179C48.6935 34.2485 50.9251 28.4161 50.9251 22.0329C50.9251 21.4328 50.9307 20.8157 50.937 20.1897C50.9757 15.9538 51.0194 11.1537 49.312 7.93872C46.5143 2.66982 39.9 0.80014 35.0855 0.80014C31.15 0.80014 24.0665 1.76432 20.8437 8.22077C19.3419 11.23 19.3959 16.1954 19.4392 20.1859C19.4464 20.8289 19.453 21.4492 19.453 22.0329C19.453 28.459 21.6854 34.3274 25.1319 38.2585V42.851C23.3897 43.5136 18.7532 45.2507 10.1427 48.3155L10.0602 48.3483C-1.01524 53.1837 -0.148767 68.1802 0.145117 71.2002H2.72217C2.54161 69.4555 1.36152 55.0054 11.037 50.7405C13.6809 49.799 15.9509 48.9831 17.8784 48.284V51.8902C15.6773 52.1975 13.6271 53.2721 12.111 54.9468L11.6157 55.4938C9.9965 57.2827 9.10473 59.6023 9.10473 62.0254V70.361H15.0856V67.7738H11.6664V62.0254C11.6664 60.2497 12.3197 58.5504 13.5063 57.2398L14.0016 56.6927C15.3295 55.2257 17.2165 54.3864 19.1834 54.3864C19.1938 54.3864 19.2046 54.3864 19.2153 54.3864C21.1934 54.3959 23.0861 55.254 24.408 56.7407L24.8554 57.2436C26.014 58.5473 26.6522 60.2295 26.6522 61.9812V67.7738H23.1076V70.361H29.2138V61.9812C29.2138 59.591 28.3428 57.2941 26.7614 55.5153L26.314 55.0117C24.7826 53.2891 22.6893 52.1855 20.44 51.8839V47.3513C22.5466 46.5802 24.0873 46.0067 25.1319 45.6135V48.4663L35.0972 59.6768L45.2411 48.4733V45.6035C46.7698 46.1789 49.3769 47.1475 53.2885 48.5616V57.5825C50.3603 58.1838 48.1493 60.8044 48.1493 63.9367C48.1493 67.512 51.0294 70.4209 54.5693 70.4209C58.1091 70.4209 60.9893 67.512 60.9893 63.9367C60.9893 60.8044 58.7783 58.1838 55.85 57.5825V49.4848C56.939 49.876 58.1085 50.2937 59.3624 50.7405C69.0399 55.0061 67.8578 69.4599 67.6779 71.2002H70.255C70.5486 68.1802 71.4152 53.1837 60.3395 48.3483Z" fill="#FAFAFA"/>
</svg>
