<svg width="21" height="20" viewBox="0 0 21 20" fill="none" xmlns="http://www.w3.org/2000/svg">
<g id="material-symbols:e911-emergency">
<path id="Vector" d="M4.66536 16.6667V15H5.9987L7.64453 9.52083C7.75564 9.15972 7.96037 8.87139 8.2587 8.65583C8.55759 8.44083 8.88759 8.33333 9.2487 8.33333H11.7487C12.1098 8.33333 12.4398 8.44083 12.7387 8.65583C13.037 8.87139 13.2418 9.15972 13.3529 9.52083L14.9987 15H16.332V16.6667H4.66536ZM9.66537 6.66667V2.5H11.332V6.66667H9.66537ZM14.6237 8.72917L13.4362 7.54167L16.3945 4.60417L17.5612 5.77083L14.6237 8.72917ZM15.4987 12.5V10.8333H19.6654V12.5H15.4987ZM6.3737 8.72917L3.4362 5.77083L4.60286 4.60417L7.5612 7.54167L6.3737 8.72917ZM1.33203 12.5V10.8333H5.4987V12.5H1.33203Z" fill="#E85222"/>
</g>
</svg>
