<svg width="71" height="71" viewBox="0 0 71 71" fill="none" xmlns="http://www.w3.org/2000/svg">
<g id="healthicons:wold-care-outline">
<path id="Vector" fill-rule="evenodd" clip-rule="evenodd" d="M35.1306 38.5336H35.2479C43.3484 38.5336 49.9146 31.9673 49.9146 23.8669C49.9146 15.7665 43.3484 9.2002 35.2479 9.2002H35.1306C27.0845 9.26326 20.5813 15.8061 20.5813 23.8669C20.5813 31.9277 27.0845 38.4705 35.1306 38.5336ZM46.8904 25.3335H43.957C43.8778 26.6726 43.6901 27.9589 43.4085 29.1689H45.717C46.3268 27.9678 46.7238 26.6702 46.8904 25.3335ZM43.605 32.1022H42.483C42.2674 32.6346 42.0284 33.1406 41.7732 33.6202C42.4339 33.1773 43.0481 32.6688 43.6065 32.1022H43.605ZM40.3828 29.1689C40.7025 27.9999 40.9254 26.7107 41.0178 25.3335H36.7146V29.1689H40.3828ZM36.7146 32.1022H39.2578C39.1449 32.3193 39.029 32.5275 38.9088 32.7285C38.1754 33.9473 37.4171 34.7011 36.7146 35.1279V32.1022ZM33.7813 29.1689V25.3335H29.3842C29.4766 26.7107 29.6995 27.9999 30.0193 29.1689H33.7813ZM31.1442 32.1022H33.7813V35.1822C33.0538 34.7671 32.2589 34.003 31.4933 32.7285C31.3705 32.5234 31.2541 32.3145 31.1442 32.1022ZM26.9935 29.1689C26.7032 27.9081 26.5197 26.6251 26.445 25.3335H23.6055C23.7757 26.6975 24.1805 27.9911 24.7789 29.1689H26.9935ZM26.8909 32.1022H27.9176C28.12 32.5979 28.3399 33.0702 28.5761 33.519C27.9709 33.1004 27.4077 32.626 26.8909 32.1022ZM43.957 22.4002C43.8825 21.1086 43.699 19.8256 43.4085 18.5649H45.717C46.3273 19.7657 46.7243 21.0635 46.8904 22.4002H43.957ZM43.605 15.6315H42.483C42.2674 15.0991 42.0284 14.5931 41.7732 14.1135C42.4346 14.5579 43.0492 15.0669 43.6065 15.6315H43.605ZM36.7146 15.6315H39.2578C39.148 15.4192 39.0315 15.2104 38.9088 15.0053C38.1754 13.785 37.4171 13.0326 36.7146 12.6058V15.6315ZM40.3828 18.5649H36.7146V22.4002H41.0178C40.9337 21.1039 40.721 19.8191 40.3828 18.5649ZM33.7813 12.5515V15.6315H31.1442C31.2571 15.4145 31.3745 15.2062 31.4933 15.0053C32.2574 13.7307 33.0538 12.9681 33.7813 12.5515ZM33.7813 18.5649H30.0193C29.6995 19.7338 29.4766 21.023 29.3842 22.4002H33.7813V18.5649ZM28.5746 14.2147C28.34 14.6635 28.1199 15.1358 27.919 15.6315H26.8909C27.4057 15.1079 27.9689 14.6342 28.5746 14.2147ZM26.9935 18.5649H24.7789C24.1691 19.7659 23.7721 21.0636 23.6055 22.4002H26.445C26.5242 21.0597 26.7119 19.7749 26.9935 18.5649ZM12.805 25.3335C11.2826 25.2983 9.75435 26.2326 9.26008 27.6875C9.13688 28.0513 9.06942 28.5265 9.02102 28.9591C8.96968 29.4314 8.93008 29.999 8.89928 30.6165C8.83571 32.0304 8.80295 33.4456 8.80102 34.861C8.78928 37.8208 8.86408 40.9008 8.97115 41.8556C9.15888 43.5276 10.121 45.0852 10.957 46.4404L11.0509 46.5914C11.3046 47.0021 11.5554 47.4113 11.8018 47.8322C12.9077 49.7257 14.1103 51.0017 15.2001 52.1589L15.225 52.1838C15.8381 52.8336 16.4057 53.4378 16.941 54.111C16.4217 54.6562 16.1327 55.3807 16.1343 56.1336V59.0669C16.1343 59.8449 16.4434 60.591 16.9935 61.1411C17.5436 61.6912 18.2897 62.0002 19.0677 62.0002H30.801C31.579 62.0002 32.3251 61.6912 32.8752 61.1411C33.4253 60.591 33.7344 59.8449 33.7344 59.0669V56.1336C33.7343 55.3912 33.4528 54.6764 32.9465 54.1334C32.4403 53.5904 31.7469 53.2595 31.0063 53.2076C30.8083 51.5414 30.5517 49.2916 30.5282 48.6506C30.5077 48.0992 30.3229 47.5609 30.1498 47.1517C29.9682 46.7299 29.7595 46.3204 29.525 45.9256C29.2839 45.5154 29.0256 45.1156 28.7506 44.7273L28.6934 44.6481L28.6787 44.6261L28.6729 44.6188L28.67 44.6144L28.6553 44.5938L23.8974 38.5951L23.8534 38.5511V38.5482L23.8476 38.5424L23.8124 38.5042C23.5936 38.2622 23.3833 38.0127 23.1817 37.7562C22.7329 37.1957 22.3417 36.5913 22.0142 35.9522C21.6798 35.2658 21.0462 34.6073 20.0738 34.5589C19.2451 34.5149 18.5954 34.9549 18.217 35.2937C18.0086 35.4815 17.8186 35.6888 17.6494 35.9126L17.5834 35.0297L17.5761 34.9329C17.4323 32.9998 17.2578 30.6605 16.6902 28.7875C16.0243 26.5963 14.5445 25.3761 12.8035 25.335L12.805 25.3335ZM28.051 53.2002C27.8603 51.5869 27.6228 49.4793 27.5963 48.7577C27.591 48.7144 27.5817 48.6717 27.5685 48.6301C27.5351 48.5138 27.4944 48.3996 27.4467 48.2884C27.3145 47.9857 27.1631 47.6918 26.9935 47.4084C26.7959 47.072 26.584 46.7441 26.3585 46.4257L26.3203 46.3714L21.674 40.5136L21.6475 40.4842C21.3793 40.1872 21.1215 39.881 20.8746 39.5661C20.4794 39.0651 20.1164 38.5394 19.7878 37.9924L19.7775 38.0085C19.6455 38.2534 19.5722 38.4778 19.5502 38.6245C19.4695 39.1437 19.5106 39.5016 19.5517 39.6952C19.5641 39.757 19.5812 39.8178 19.603 39.877V39.8814L22.2899 45.2172L19.7951 46.741L19.7585 46.6912L19.6573 46.5518C19.1337 45.8297 18.6155 45.1037 18.1026 44.3738C17.2123 43.1066 16.1475 41.552 15.6225 40.6192C15.2294 39.9225 15.0475 39 14.9317 38.1654C14.8122 37.2062 14.7217 36.2437 14.6603 35.279L14.6574 35.2467C14.5049 33.1963 14.3465 31.1694 13.883 29.6397C13.6806 28.9723 13.4195 28.6365 13.2318 28.4737C13.0969 28.3474 12.9207 28.2745 12.7361 28.2683C12.3357 28.2581 12.0702 28.5353 12.0365 28.635C12.0335 28.6438 12.0203 28.6937 12.0013 28.8022C11.9748 28.9594 11.9533 29.1174 11.9367 29.2759C11.8942 29.669 11.8575 30.1735 11.8282 30.7631C11.7677 32.1322 11.7369 33.5024 11.7358 34.8727C11.7226 37.8633 11.8033 40.7717 11.8883 41.5285C11.9939 42.4745 12.5835 43.485 13.5486 45.0514L13.553 45.0588C13.8023 45.4636 14.0707 45.8992 14.3362 46.3538C15.2646 47.9437 16.2649 49.01 17.3605 50.1716L17.3854 50.198C18.2009 51.0633 19.0867 52.002 19.9227 53.2002H28.051ZM20.241 37.4277C20.241 37.4277 20.2351 37.4291 20.2249 37.438C20.2307 37.4352 20.2361 37.4318 20.241 37.4277ZM30.801 59.0669V56.1336H19.0677V59.0669H30.801ZM61.1419 27.6875C60.6462 26.2326 59.1194 25.2983 57.597 25.335C55.8575 25.3761 54.3777 26.5963 53.7118 28.7875C53.1442 30.6605 52.9697 32.9998 52.8259 34.9329L52.8186 35.0297L52.7526 35.9126C52.5766 35.6823 52.386 35.4726 52.185 35.2937C51.8066 34.9563 51.1583 34.5163 50.3282 34.5574C49.3558 34.6073 48.7222 35.2658 48.3878 35.9507C48.0597 36.5898 47.6681 37.1942 47.2189 37.7547C47.0174 38.0118 46.8071 38.2618 46.5882 38.5042L46.5545 38.5424L46.5486 38.5497L46.5046 38.5951L41.7482 44.5938L41.7321 44.6144L41.7291 44.6188L41.7248 44.6261L41.7086 44.6481C41.4121 45.0605 41.1346 45.4863 40.877 45.9241C40.6421 46.3194 40.4329 46.7294 40.2508 47.1517C40.0792 47.5609 39.8944 48.0992 39.8738 48.6506C39.8504 49.2916 39.5951 51.5414 39.3957 53.2076C38.6551 53.2595 37.9618 53.5904 37.4555 54.1334C36.9493 54.6764 36.6677 55.3912 36.6677 56.1336V59.0669C36.6677 59.8449 36.9767 60.591 37.5268 61.1411C38.0769 61.6912 38.823 62.0002 39.601 62.0002H51.3344C52.1123 62.0002 52.8584 61.6912 53.4085 61.1411C53.9586 60.591 54.2677 59.8449 54.2677 59.0669V56.1336C54.2682 55.3801 53.9789 54.6554 53.4596 54.1096C53.9964 53.4378 54.5625 52.8336 55.1755 52.1838L55.2005 52.1574C56.2902 51.0017 57.4929 49.7257 58.5987 47.8322C58.8451 47.4113 59.0974 47.0036 59.3497 46.5914L59.4435 46.4404C60.2795 45.0852 61.2417 43.5276 61.4294 41.8556C61.5365 40.9008 61.6113 37.8208 61.5995 34.861C61.5981 33.4456 61.5658 32.0305 61.5027 30.6165C61.4778 30.063 61.4372 29.5103 61.381 28.9591C61.3341 28.5265 61.2666 28.0498 61.1419 27.6875ZM50.4808 53.2002C51.3167 52.002 52.2011 51.0633 53.0181 50.198L53.0416 50.1716C54.1372 49.01 55.1389 47.9422 56.0658 46.3538C56.3298 45.8992 56.5982 45.465 56.849 45.0588L56.8534 45.0514C57.82 43.485 58.4081 42.4745 58.5137 41.5285C58.5987 40.7717 58.6779 37.8633 58.6662 34.8727C58.6603 33.3973 58.6325 31.9394 58.5738 30.7631C58.5445 30.1735 58.5078 29.669 58.4653 29.2759C58.4487 29.1174 58.4272 28.9594 58.4007 28.8022C58.3917 28.7459 58.38 28.6901 58.3655 28.635C58.3318 28.5353 58.0663 28.2581 57.6674 28.2683C57.4822 28.2741 57.3055 28.3471 57.1702 28.4737C56.9825 28.635 56.7214 28.9723 56.519 29.6397C56.0555 31.1679 55.8971 33.1963 55.7446 35.2467L55.7417 35.279C55.6684 36.2822 55.5921 37.2942 55.4703 38.1654C55.3559 39 55.1726 39.9225 54.781 40.6206C54.2545 41.552 53.1897 43.1066 52.2994 44.3753C51.7865 45.1046 51.2683 45.8301 50.7448 46.5518L50.6421 46.6912L50.6069 46.741L48.1121 45.2157L50.7976 39.8814L50.799 39.877C50.8208 39.8178 50.8379 39.757 50.8503 39.6952C50.8914 39.5016 50.9325 39.1437 50.8518 38.6245C50.81 38.4082 50.7332 38.2001 50.6245 38.0085L50.6142 37.9924C50.2534 38.601 49.856 39.1466 49.5289 39.5646C49.2816 39.8801 49.0233 40.1868 48.7545 40.4842L48.7266 40.5136L44.0817 46.3714L44.0435 46.4257C43.8181 46.7442 43.6063 47.072 43.4085 47.4084C43.2325 47.7076 43.0712 48.0141 42.9553 48.2884C42.8981 48.4248 42.8585 48.5377 42.8335 48.6286C42.8204 48.6707 42.8111 48.7139 42.8057 48.7577C42.7793 49.4793 42.5417 51.5884 42.351 53.2002H50.4808ZM50.161 37.4277C50.161 37.4277 50.1669 37.4291 50.1771 37.438C50.1714 37.4352 50.166 37.4317 50.161 37.4277ZM39.601 59.0669V56.1336H51.3344V59.0669H39.601Z" fill="#FAFAFA"/>
</g>
</svg>
