<svg width="65" height="53" viewBox="0 0 65 53" fill="none" xmlns="http://www.w3.org/2000/svg">
<g id="Group 89798">
<path id="path14" d="M25.8066 11.6736H30.2261C30.5737 11.6736 30.856 11.3913 30.856 11.0437V6.62425H33.9595V11.0437C33.9595 11.3913 34.2414 11.6736 34.5894 11.6736H39.0084V14.7771H34.5894C34.2414 14.7771 33.9595 15.059 33.9595 15.407V19.826H30.856V15.407C30.856 15.059 30.5737 14.7771 30.2261 14.7771H25.8066V11.6736ZM25.1768 16.0369H29.5958V20.4563C29.5958 20.8039 29.8781 21.0862 30.2261 21.0862H34.5894C34.9373 21.0862 35.2192 20.8039 35.2192 20.4563V16.0369H39.6387C39.9863 16.0369 40.2686 15.7549 40.2686 15.407V11.0437C40.2686 10.6957 39.9863 10.4134 39.6387 10.4134H35.2192V5.99437C35.2192 5.64641 34.9373 5.36448 34.5894 5.36448H30.2261C29.8781 5.36448 29.5958 5.64641 29.5958 5.99437V10.4134H25.1768C24.8288 10.4134 24.5469 10.6957 24.5469 11.0437V15.407C24.5469 15.7549 24.8288 16.0369 25.1768 16.0369Z" fill="#FAFAFA" stroke="#FAFAFA" stroke-width="0.369565"/>
<path id="path16" d="M20.6367 25.0705H25.0285V29.4626H20.6367V25.0705ZM20.0068 30.7224H25.6583C26.0063 30.7224 26.2882 30.4401 26.2882 30.0925V24.4406C26.2882 24.0927 26.0063 23.8108 25.6583 23.8108H20.0068C19.6589 23.8108 19.377 24.0927 19.377 24.4406V30.0925C19.377 30.4401 19.6589 30.7224 20.0068 30.7224Z" fill="#FAFAFA" stroke="#FAFAFA" stroke-width="0.443478"/>
<path id="path18" d="M35.1242 29.4626H30.7324V25.0705H35.1242V29.4626ZM35.7541 23.8108H30.1025C29.7546 23.8108 29.4727 24.0927 29.4727 24.4406V30.0925C29.4727 30.4401 29.7546 30.7224 30.1025 30.7224H35.7541C36.102 30.7224 36.3839 30.4401 36.3839 30.0925V24.4406C36.3839 24.0927 36.102 23.8108 35.7541 23.8108Z" fill="#FAFAFA" stroke="#FAFAFA" stroke-width="0.443478"/>
<path id="path20" d="M40.832 25.0705H45.2238V29.4626H40.832V25.0705ZM39.5723 24.4406V30.0925C39.5723 30.4401 39.8542 30.7224 40.2022 30.7224H45.8537C46.2016 30.7224 46.4835 30.4401 46.4835 30.0925V24.4406C46.4835 24.0927 46.2016 23.8108 45.8537 23.8108H40.2022C39.8542 23.8108 39.5723 24.0927 39.5723 24.4406Z" fill="#FAFAFA" stroke="#FAFAFA" stroke-width="0.443478"/>
<path id="path22" d="M20.6367 33.9271H25.0285V38.3188H20.6367V33.9271ZM20.0068 39.5786H25.6583C26.0063 39.5786 26.2882 39.2967 26.2882 38.9487V33.2968C26.2882 32.9493 26.0063 32.667 25.6583 32.667H20.0068C19.6589 32.667 19.377 32.9493 19.377 33.2968V38.9487C19.377 39.2967 19.6589 39.5786 20.0068 39.5786Z" fill="#FAFAFA" stroke="#FAFAFA" stroke-width="0.443478"/>
<path id="path24" d="M35.1242 38.3188H30.7324V33.9271H35.1242V38.3188ZM35.7541 32.667H30.1025C29.7546 32.667 29.4727 32.9493 29.4727 33.2968V38.9487C29.4727 39.2967 29.7546 39.5786 30.1025 39.5786H35.7541C36.102 39.5786 36.3839 39.2967 36.3839 38.9487V33.2968C36.3839 32.9493 36.102 32.667 35.7541 32.667Z" fill="#FAFAFA" stroke="#FAFAFA" stroke-width="0.443478"/>
<path id="path26" d="M45.2238 38.3188H40.832V33.9271H45.2238V38.3188ZM45.8537 32.667H40.2022C39.8542 32.667 39.5723 32.9493 39.5723 33.2968V38.9487C39.5723 39.2967 39.8542 39.5786 40.2022 39.5786H45.8537C46.2016 39.5786 46.4835 39.2967 46.4835 38.9487V33.2968C46.4835 32.9493 46.2016 32.667 45.8537 32.667Z" fill="#FAFAFA" stroke="#FAFAFA" stroke-width="0.443478"/>
<path id="path28" d="M58.1881 51.2008H51.5936V37.126H55.2026C55.5505 37.126 55.8325 36.844 55.8325 36.4961V31.4263C55.8325 31.0783 55.5505 30.7964 55.2026 30.7964H51.5936V28.6901H55.2026C55.5505 28.6901 55.8325 28.4081 55.8325 28.0602V22.9904C55.8325 22.6424 55.5505 22.3605 55.2026 22.3605H51.5936V20.2542H55.2026C55.5505 20.2542 55.8325 19.9722 55.8325 19.6243V14.5545C55.8325 14.2065 55.5505 13.9246 55.2026 13.9246H51.5936V9.11695H56.9055C57.6128 9.11695 58.1881 9.69219 58.1881 10.3995V51.2008ZM51.5936 32.0561H54.5727V35.8662H51.5936V32.0561ZM51.5936 23.6202H54.5727V27.4303H51.5936V23.6202ZM51.5936 15.1843H54.5727V18.9944H51.5936V15.1843ZM50.3339 8.48631C50.3339 8.48669 50.3339 8.48706 50.3339 8.48706V14.5545V19.6243V22.9904V28.0602V31.4263V36.4961V51.2005H44.8615V44.7309H46.1846C46.5326 44.7309 46.8145 44.4489 46.8145 44.101C46.8145 43.753 46.5326 43.4711 46.1846 43.4711H44.2316H21.6248H19.6718C19.3238 43.4711 19.0419 43.753 19.0419 44.101C19.0419 44.4489 19.3238 44.7309 19.6718 44.7309H20.9949V51.2005H15.5225V36.4961V31.4263V28.0602V22.9904V19.6243V14.5545V8.48706C15.5225 8.48706 15.5225 8.48669 15.5225 8.48631V2.26031H50.3339V8.48631ZM43.6017 51.2005H22.2547V44.7309H43.6017V51.2005ZM14.2627 13.9246H10.6539C10.306 13.9246 10.0239 14.2065 10.0239 14.5545V19.6243C10.0239 19.9722 10.306 20.2542 10.6539 20.2542H14.2627V22.3605H10.6539C10.306 22.3605 10.0239 22.6424 10.0239 22.9904V28.0602C10.0239 28.4081 10.306 28.6901 10.6539 28.6901H14.2627V30.7964H10.6539C10.306 30.7964 10.0239 31.0783 10.0239 31.4263V36.4961C10.0239 36.844 10.306 37.126 10.6539 37.126H14.2627V51.2008H7.66837V10.3995C7.66837 9.69219 8.24369 9.11695 8.95086 9.11695H14.2627V13.9246ZM14.2627 18.9944H11.2838V15.1843H14.2627V18.9944ZM14.2627 27.4303H11.2838V23.6202H14.2627V27.4303ZM14.2627 35.8662H11.2838V32.0561H14.2627V35.8662ZM64.1094 51.2342H59.4478V10.3995C59.4478 8.9978 58.3072 7.85718 56.9055 7.85718H51.5936V1.63043C51.5936 1.28247 51.3117 1.00017 50.9638 1.00017H14.8926C14.5447 1.00017 14.2627 1.28247 14.2627 1.63043V7.85718H8.95086C7.54903 7.85718 6.40852 8.9978 6.40852 10.3995V51.2342H1.36914C1.02126 51.2342 0.739258 51.5165 0.739258 51.8641C0.739258 52.2121 1.02126 52.4944 1.36914 52.4944H64.1094C64.4573 52.4944 64.7393 52.2121 64.7393 51.8641C64.7393 51.5165 64.4573 51.2342 64.1094 51.2342Z" fill="#FAFAFA" stroke="#FAFAFA" stroke-width="0.369565"/>
</g>
</svg>
