<svg width="21" height="20" viewBox="0 0 21 20" fill="none" xmlns="http://www.w3.org/2000/svg">
<g id="mdi:information-box">
<path id="Vector" d="M4.66667 2.5H16.3333C16.7754 2.5 17.1993 2.67559 17.5118 2.98816C17.8244 3.30072 18 3.72464 18 4.16667V15.8333C18 16.275 17.825 16.7 17.5083 17.0083C17.2 17.325 16.775 17.5 16.3333 17.5H4.66667C4.225 17.5 3.8 17.325 3.49167 17.0083C3.175 16.7 3 16.275 3 15.8333V4.16667C3 3.24167 3.74167 2.5 4.66667 2.5ZM11.3333 7.5V5.83333H9.66667V7.5H11.3333ZM11.3333 14.1667V9.16667H9.66667V14.1667H11.3333Z" fill="#FBBA00"/>
</g>
</svg>
