<svg width="33" height="32" viewBox="0 0 33 32" fill="none" xmlns="http://www.w3.org/2000/svg">
<g id="mdi:linkedin">
<g clip-path="url(#clip0_2308_19215)">
<rect x="0.5" width="32" height="32" rx="8" fill="white"/>
<path id="Vector" d="M28.9444 0C29.8874 0 30.7918 0.374602 31.4586 1.0414C32.1254 1.70819 32.5 2.61256 32.5 3.55556V28.4444C32.5 29.3874 32.1254 30.2918 31.4586 30.9586C30.7918 31.6254 29.8874 32 28.9444 32H4.05556C3.11256 32 2.20819 31.6254 1.5414 30.9586C0.874602 30.2918 0.5 29.3874 0.5 28.4444V3.55556C0.5 2.61256 0.874602 1.70819 1.5414 1.0414C2.20819 0.374602 3.11256 0 4.05556 0H28.9444ZM28.0556 27.5556V18.1333C28.0556 16.5963 27.445 15.1221 26.3581 14.0353C25.2712 12.9484 23.7971 12.3378 22.26 12.3378C20.7489 12.3378 18.9889 13.2622 18.1356 14.6489V12.6756H13.1756V27.5556H18.1356V18.7911C18.1356 17.4222 19.2378 16.3022 20.6067 16.3022C21.2668 16.3022 21.8998 16.5644 22.3666 17.0312C22.8333 17.498 23.0956 18.131 23.0956 18.7911V27.5556H28.0556ZM7.39778 9.88445C8.18989 9.88445 8.94956 9.56978 9.50967 9.00967C10.0698 8.44956 10.3844 7.68989 10.3844 6.89778C10.3844 5.24444 9.05111 3.89333 7.39778 3.89333C6.60095 3.89333 5.83676 4.20987 5.27331 4.77331C4.70987 5.33676 4.39333 6.10095 4.39333 6.89778C4.39333 8.55111 5.74444 9.88445 7.39778 9.88445ZM9.86889 27.5556V12.6756H4.94444V27.5556H9.86889Z" fill="#3757A1"/>
</g>
</g>
<defs>
<clipPath id="clip0_2308_19215">
<rect x="0.5" width="32" height="32" rx="8" fill="white"/>
</clipPath>
</defs>
</svg>
