<svg width="21" height="20" viewBox="0 0 21 20" fill="none" xmlns="http://www.w3.org/2000/svg">
<g id="material-symbols:mail-rounded">
<path id="Vector" d="M3.83464 16.6663C3.3763 16.6663 2.98408 16.5033 2.65797 16.1772C2.3313 15.8505 2.16797 15.458 2.16797 14.9997V4.99967C2.16797 4.54134 2.3313 4.14912 2.65797 3.82301C2.98408 3.49634 3.3763 3.33301 3.83464 3.33301H17.168C17.6263 3.33301 18.0188 3.49634 18.3455 3.82301C18.6716 4.14912 18.8346 4.54134 18.8346 4.99967V14.9997C18.8346 15.458 18.6716 15.8505 18.3455 16.1772C18.0188 16.5033 17.6263 16.6663 17.168 16.6663H3.83464ZM10.5013 10.6872C10.5707 10.6872 10.6435 10.6766 10.7196 10.6555C10.7963 10.635 10.8694 10.6038 10.9388 10.5622L16.8346 6.87467C16.9457 6.80523 17.0291 6.71856 17.0846 6.61467C17.1402 6.51023 17.168 6.39551 17.168 6.27051C17.168 5.99273 17.0499 5.7844 16.8138 5.64551C16.5777 5.50662 16.3346 5.51356 16.0846 5.66634L10.5013 9.16634L4.91797 5.66634C4.66797 5.51356 4.42491 5.50995 4.1888 5.65551C3.95269 5.80162 3.83464 6.00662 3.83464 6.27051C3.83464 6.4094 3.86241 6.53079 3.91797 6.63467C3.97352 6.73912 4.05686 6.81912 4.16797 6.87467L10.0638 10.5622C10.1332 10.6038 10.2063 10.635 10.283 10.6555C10.3591 10.6766 10.4319 10.6872 10.5013 10.6872Z" fill="#54AF3B"/>
</g>
</svg>
