<svg width="62" height="71" viewBox="0 0 62 71" fill="none" xmlns="http://www.w3.org/2000/svg">
<g id="g10">
<path id="path14" d="M19.4427 38.334C14.269 38.334 9.39197 36.3058 5.70988 32.6241C2.02779 28.9418 0 24.0649 0 18.8908V0.199718H8.62896C9.54218 0.199718 10.2826 0.94001 10.2826 1.85379C10.2826 2.76701 9.54218 3.50731 8.62896 3.50731H3.30726V18.8908C3.30726 27.7884 10.5456 35.0264 19.4427 35.0264C28.3398 35.0264 35.5782 27.7884 35.5782 18.8908V3.50731H30.2565C29.3432 3.50731 28.6029 2.76701 28.6029 1.85379C28.6029 0.94001 29.3432 0.199718 30.2565 0.199718H38.8853V18.8908C38.8853 24.0649 36.8576 28.9418 33.1754 32.6241C29.4935 36.3058 24.6164 38.334 19.4427 38.334Z" fill="#FAFAFA"/>
<path id="path16" d="M37.2318 70.5996C32.0582 70.5996 27.181 68.5714 23.4989 64.8897C19.8168 61.2075 17.7891 56.3305 17.7891 51.157V36.6545H21.0963V51.157C21.0963 60.0541 28.3347 67.292 37.2318 67.292C46.1289 67.292 53.3674 60.0541 53.3674 51.157V34.1194H56.6744V51.157C56.6744 56.3305 54.6468 61.2075 50.9645 64.8897C47.2828 68.5714 42.4053 70.5996 37.2318 70.5996Z" fill="#FAFAFA"/>
<path id="path18" d="M55.0188 25.6396C53.0296 25.6396 51.4111 27.2581 51.4111 29.2478C51.4111 31.237 53.0296 32.8555 55.0188 32.8555C57.008 32.8555 58.627 31.237 58.627 29.2478C58.627 27.2581 57.008 25.6396 55.0188 25.6396ZM55.0188 36.1631C51.206 36.1631 48.1035 33.0606 48.1035 29.2478C48.1035 25.4344 51.206 22.3326 55.0188 22.3326C58.8316 22.3326 61.934 25.4344 61.934 29.2478C61.934 33.0606 58.8316 36.1631 55.0188 36.1631Z" fill="#FAFAFA"/>
</g>
</svg>
