<svg width="33" height="32" viewBox="0 0 33 32" fill="none" xmlns="http://www.w3.org/2000/svg">
<g id="ant-design:twitter-square-filled">
<g clip-path="url(#clip0_2308_19213)">
<rect x="0.5" width="32" height="32" rx="8" fill="white"/>
<path id="Vector" d="M31.22 0H1.78C1.072 0 0.5 0.572 0.5 1.28V30.72C0.5 31.428 1.072 32 1.78 32H31.22C31.928 32 32.5 31.428 32.5 30.72V1.28C32.5 0.572 31.928 0 31.22 0ZM25.112 11.588C25.124 11.776 25.124 11.972 25.124 12.164C25.124 18.036 20.652 24.8 12.48 24.8C9.96 24.8 7.624 24.068 5.656 22.808C6.016 22.848 6.36 22.864 6.728 22.864C8.808 22.864 10.72 22.16 12.244 20.968C10.292 20.928 8.652 19.648 8.092 17.888C8.776 17.988 9.392 17.988 10.096 17.808C9.0909 17.6038 8.1875 17.0579 7.53927 16.2631C6.89103 15.4683 6.53795 14.4736 6.54 13.448V13.392C7.128 13.724 7.82 13.928 8.544 13.956C7.93537 13.5504 7.43623 13.0008 7.09084 12.3561C6.74546 11.7114 6.56449 10.9914 6.564 10.26C6.564 9.432 6.78 8.676 7.168 8.02C8.28361 9.39335 9.67572 10.5166 11.2539 11.3167C12.832 12.1168 14.5608 12.5758 16.328 12.664C15.7 9.644 17.956 7.2 20.668 7.2C21.948 7.2 23.1 7.736 23.912 8.6C24.916 8.412 25.876 8.036 26.732 7.532C26.4 8.56 25.704 9.428 24.78 9.976C25.676 9.88 26.54 9.632 27.34 9.284C26.736 10.172 25.98 10.96 25.112 11.588Z" fill="#3757A1"/>
</g>
</g>
<defs>
<clipPath id="clip0_2308_19213">
<rect x="0.5" width="32" height="32" rx="8" fill="white"/>
</clipPath>
</defs>
</svg>
