<svg width="33" height="32" viewBox="0 0 33 32" fill="none" xmlns="http://www.w3.org/2000/svg">
<g id="ph:youtube-logo-fill">
<g clip-path="url(#clip0_2308_19217)">
<rect id="Rectangle 14238" x="3.5" y="6" width="26" height="19" fill="#FAFAFA"/>
<path id="Vector" d="M31.69 7.36091C31.5554 6.81631 31.2975 6.31261 30.9376 5.89137C30.5777 5.47013 30.1261 5.14341 29.62 4.93819C24.7229 2.98228 16.9286 3.00001 16.5 3.00001C16.0714 3.00001 8.27714 2.98228 3.38 4.93819C2.87395 5.14341 2.42233 5.47013 2.06242 5.89137C1.70251 6.31261 1.44461 6.81631 1.31 7.36091C0.94 8.83523 0.5 11.5298 0.5 16C0.5 20.4702 0.94 23.1648 1.31 24.6391C1.44441 25.184 1.70221 25.688 2.06214 26.1095C2.42207 26.531 2.87378 26.8579 3.38 27.0633C8.07143 28.935 15.4143 29 16.4057 29H16.5943C17.5857 29 24.9329 28.935 29.62 27.0633C30.1262 26.8579 30.5779 26.531 30.9379 26.1095C31.2978 25.688 31.5556 25.184 31.69 24.6391C32.06 23.1618 32.5 20.4702 32.5 16C32.5 11.5298 32.06 8.83523 31.69 7.36091ZM21.3886 16.4919L14.5314 21.2192C14.4454 21.2786 14.3453 21.3127 14.2419 21.3179C14.1386 21.3231 14.0358 21.2991 13.9446 21.2486C13.8534 21.1981 13.7771 21.1229 13.724 21.0311C13.6708 20.9393 13.6428 20.8343 13.6429 20.7273V11.2727C13.6428 11.1657 13.6708 11.0607 13.724 10.9689C13.7771 10.8771 13.8534 10.8019 13.9446 10.7514C14.0358 10.7009 14.1386 10.677 14.2419 10.6821C14.3453 10.6873 14.4454 10.7214 14.5314 10.7808L21.3886 15.5081C21.467 15.562 21.5312 15.6351 21.5757 15.721C21.6202 15.8068 21.6434 15.9026 21.6434 16C21.6434 16.0974 21.6202 16.1932 21.5757 16.279C21.5312 16.3649 21.467 16.438 21.3886 16.4919Z" fill="#E85222"/>
</g>
</g>
<defs>
<clipPath id="clip0_2308_19217">
<rect x="0.5" width="32" height="32" rx="8" fill="white"/>
</clipPath>
</defs>
</svg>
